<svg width="37" height="40" viewBox="0 0 37 40" fill="none" xmlns="http://www.w3.org/2000/svg">
<path d="M7.51723 14.5454L1.97891 11.7256C1.5457 12.5767 1.17676 13.4691 0.883179 14.378L6.79691 16.2902C6.99017 15.6924 7.23196 15.1053 7.51723 14.5454Z" fill="black"/>
<path d="M12.2216 9.57576L15.2892 14.8612C15.7372 14.6014 16.2167 14.4016 16.7155 14.2675L15.1279 8.36583C15.5319 8.25718 15.9425 8.16749 16.3554 8.1023L15.3798 1.96387C14.4362 2.11366 13.4986 2.33975 12.5924 2.63518L14.4894 8.44905C13.886 8.64601 13.2984 8.89058 12.7325 9.18001L9.94419 3.73739C9.09627 4.17198 8.27609 4.67685 7.50537 5.23952L11.1693 10.2596C11.5068 10.0136 11.86 9.78613 12.2216 9.57576Z" fill="black"/>
<path d="M28.683 13.9549L23.3994 17.0253C23.6597 17.4728 23.8594 17.9527 23.994 18.4507L29.8952 16.8602C30.0039 17.2643 30.0936 17.6744 30.1592 18.0868L36.2967 17.1094C36.1465 16.1663 35.9199 15.2282 35.6236 14.3216L29.8106 16.2222C29.6132 15.6189 29.3686 15.0317 29.0787 14.4658L34.5195 11.6738C34.0849 10.8268 33.5791 10.0066 33.0165 9.23633L27.9978 12.9027C28.2442 13.2402 28.4727 13.5929 28.683 13.9549Z" fill="black"/>
<path d="M26.5284 3.71251C25.6763 3.27977 24.784 2.91128 23.876 2.61816L21.967 8.53283C22.5643 8.72562 23.1515 8.96788 23.7123 9.25268L26.5284 3.71251Z" fill="black"/>
<path d="M24.3216 9.46746L21.2189 14.8523C21.6683 15.1112 22.0825 15.4284 22.451 15.7954L31.1531 7.06377C30.4781 6.39107 29.7448 5.76646 28.9736 5.20703L25.3845 10.1568C25.0424 9.90899 24.6877 9.67875 24.3216 9.46746Z" fill="black"/>
<path d="M7.73299 13.9354L13.1164 17.0414C13.3753 16.5925 13.6934 16.1778 14.061 15.8088L5.33301 7.10352C4.65985 7.77853 4.03477 8.51133 3.47534 9.28204L8.42326 12.8735C8.17545 13.2151 7.94428 13.5693 7.73299 13.9354Z" fill="black"/>
<path d="M20.1462 7.99785L21.0852 1.95558C20.1573 1.81133 19.2077 1.73828 18.2622 1.73828H18.2479V14.066H18.2622C18.7819 14.066 19.296 14.1326 19.7907 14.2639L21.3848 8.25675C20.977 8.14857 20.5637 8.06304 20.1462 7.99785Z" fill="black"/>
<path d="M12.5261 18.4684L6.51986 16.8701C6.41121 17.2779 6.32522 17.6912 6.26003 18.1087L0.218685 17.1669C0.0735114 18.0981 0 19.0514 0 19.9997H12.3277C12.3277 19.4791 12.3944 18.9636 12.5261 18.4684Z" fill="black"/>
<path d="M29.0075 25.4558L34.5458 28.2756C34.979 27.4244 35.3479 26.5321 35.6415 25.6232L29.7278 23.7109C29.5345 24.3087 29.2928 24.8959 29.0075 25.4558Z" fill="black"/>
<path d="M24.3026 30.4241L21.235 25.1387C20.787 25.3985 20.3076 25.5982 19.8087 25.7323L21.3964 31.634C20.9918 31.7427 20.5817 31.8324 20.1689 31.8976L21.1439 38.0355C22.0876 37.8857 23.0252 37.6596 23.9314 37.3642L22.0344 31.5503C22.6382 31.3534 23.2254 31.1088 23.7913 30.8194L26.5796 36.262C27.4275 35.8274 28.2477 35.3225 29.0184 34.7599L25.3544 29.7398C25.0169 29.9858 24.6642 30.2137 24.3026 30.4241Z" fill="black"/>
<path d="M7.84177 26.0465L13.1258 22.9762C12.8655 22.5286 12.6657 22.0487 12.5312 21.5508L6.62999 23.1412C6.52134 22.7371 6.43165 22.327 6.366 21.9146L0.228027 22.892C0.378287 23.8352 0.604831 24.7733 0.901188 25.6799L6.71414 23.7792C6.91155 24.3826 7.15613 24.9698 7.44602 25.5357L2.00525 28.3277C2.43984 29.1747 2.94564 29.9949 3.5083 30.7651L8.52696 27.0988C8.28053 26.7613 8.05213 26.4085 7.84177 26.0465Z" fill="black"/>
<path d="M9.99609 36.2882C10.8481 36.721 11.7404 37.0894 12.6485 37.3826L14.5575 31.4679C13.9601 31.2751 13.373 31.0328 12.8121 30.748L9.99609 36.2882Z" fill="black"/>
<path d="M12.2029 30.534L15.3057 25.1492C14.8563 24.8903 14.442 24.5731 14.0735 24.2061L5.37146 32.9377C6.04647 33.6104 6.77974 34.235 7.55091 34.7945L11.14 29.8447C11.4822 30.0925 11.8367 30.3227 12.2029 30.534Z" fill="black"/>
<path d="M28.7914 26.0659L23.4079 22.96C23.149 23.4089 22.8309 23.8236 22.4634 24.1925L31.1909 32.8983C31.8641 32.2233 32.4891 31.4905 33.0486 30.7198L28.1006 27.1284C28.3485 26.7867 28.5801 26.4321 28.7914 26.0659Z" fill="black"/>
<path d="M16.7337 25.7363L15.1396 31.7435C15.5474 31.8516 15.9607 31.9372 16.3782 32.0024L15.4397 38.0446C16.3676 38.1889 17.3172 38.2619 18.2627 38.2619H18.277V25.9342H18.2627C17.743 25.9342 17.2284 25.8676 16.7337 25.7363Z" fill="black"/>
<path d="M24.1968 20.001C24.1968 20.5216 24.1298 21.0366 23.998 21.5322L30.0042 23.1305C30.1129 22.7227 30.1989 22.3094 30.264 21.8919L36.3059 22.8342C36.451 21.903 36.5245 20.9497 36.5245 20.0014L24.1968 20.001Z" fill="black"/>
</svg>
